<svg width="65" height="63" viewBox="0 0 65 63" fill="none" xmlns="http://www.w3.org/2000/svg">
<rect x="0.904297" width="64" height="63" rx="31.5" fill="#3A3C49"/>
<path d="M47.3534 16.9587L47.3585 16.9638L47.3636 16.9687C48.7232 18.253 49.3302 20.2134 49.1294 22.6835C48.9285 25.156 47.9181 28.0911 46.1051 31.2235L45.9596 31.4749L46.1059 31.7259C47.8353 34.6913 48.846 37.5441 49.0672 39.9975C49.2875 42.4412 48.7238 44.4433 47.3651 45.8106C46.1266 46.8895 44.5787 47.5135 42.5292 47.5135C39.8148 47.5135 36.5649 46.3903 33.2658 44.4106L33.0085 44.2562L32.7512 44.4106C29.4523 46.3903 26.2023 47.5135 23.488 47.5135C21.4124 47.5135 19.7329 46.8756 18.6865 45.6794L18.6708 45.6615L18.6535 45.6452C17.2935 44.3606 16.687 42.3999 16.8876 39.9517C17.0884 37.5013 18.0979 34.6093 19.9091 31.5625L20.0596 31.3094L19.9112 31.0551C18.1795 28.0857 17.1281 25.2321 16.8869 22.7795C16.6463 20.3324 17.213 18.3337 18.654 16.9682L18.6542 16.9683L18.6637 16.9587C20.0309 15.5913 22.037 15.0236 24.487 15.2446C26.9397 15.4658 29.7918 16.4767 32.7565 18.2065L33.0025 18.35L33.2513 18.2117C34.7641 17.3712 36.2255 16.5609 37.6765 16.0772L37.6765 16.0772L37.6819 16.0753C41.95 14.5976 45.3821 14.9869 47.3534 16.9587ZM45.7221 18.5906L45.7103 18.5789L45.6978 18.5679C44.1531 17.2159 41.5865 17.1196 38.372 18.299C37.9915 18.3979 37.5845 18.5815 37.1998 18.7638C37.113 18.8049 37.027 18.8461 36.9414 18.8871C36.6224 19.04 36.3106 19.1895 35.9963 19.3152L35.1871 19.639L35.875 20.1741C37.3804 21.3452 38.8599 22.4969 40.3382 23.9755C41.8164 25.4541 42.9678 26.934 44.1388 28.4396L44.6259 29.066L44.9807 28.3562C46.0029 26.3114 46.6112 24.3294 46.7643 22.6439C46.9156 20.9793 46.6296 19.4983 45.7221 18.5906ZM20.2949 44.0233L20.2949 44.0233C21.193 44.9216 22.6204 45.2598 24.279 45.1289C25.9499 44.9969 27.9362 44.3857 30.0657 43.2781L30.8162 42.8878L30.1124 42.4185C28.6484 41.4423 27.1717 40.1316 25.6789 38.6385C24.2007 37.1599 23.0492 35.68 21.8784 34.1742L21.3912 33.5478L21.0364 34.2576C20.0142 36.3025 19.406 38.2846 19.2528 39.97C19.1015 41.6346 19.3874 43.1156 20.2949 44.0233ZM35.708 42.4398L35.0597 42.9442L35.8054 43.2885C38.0081 44.3053 40.0279 44.9127 41.7113 45.0657C43.3791 45.2174 44.8162 44.9295 45.7221 44.0233C46.4722 43.2731 46.8173 42.167 46.8367 40.8895C46.8562 39.6084 46.5508 38.1037 45.9412 36.4776C44.7209 33.2229 42.2531 29.404 38.5358 25.7704L38.5294 25.7641L38.5227 25.758C36.6746 24.0774 34.8205 22.5595 33.1283 21.3747L32.8415 21.1739L32.5547 21.3747C30.8624 22.5595 29.0025 24.0816 27.3101 25.7744L27.3101 25.7744L27.303 25.7815C26.6386 26.4461 25.9542 27.1307 25.2689 27.9875L25.264 27.9936L25.2593 27.9998C25.1064 28.2038 24.8271 28.3561 24.5054 28.3868C24.1891 28.4169 23.8858 28.3246 23.6746 28.1133L23.6745 28.1133C23.1321 27.5708 23.0976 26.8915 23.5075 26.4815L23.5271 26.4619L23.5444 26.4402C23.8678 26.036 24.2335 25.6293 24.6113 25.2094L24.6165 25.2036C24.979 24.8007 25.3527 24.3855 25.6889 23.9677C27.184 22.6384 28.6644 21.3236 30.142 20.1741L30.7681 19.6871L30.0586 19.3323C27.684 18.1447 25.266 17.4417 23.488 17.4417C22.1181 17.4417 20.9212 17.7756 20.2704 18.6154C19.5373 19.3652 19.1995 20.4612 19.1803 21.7271C19.1608 23.0106 19.4662 24.5202 20.0756 26.1563C21.2952 29.4308 23.7619 33.2904 27.4771 37.0065C29.1695 38.6993 31.0295 40.2215 32.7217 41.4064L33.0085 41.6072L33.2953 41.4064C34.9876 40.2215 36.8476 38.6993 38.5399 37.0065L38.565 36.9814L38.5863 36.953C38.8121 36.652 39.0787 36.3842 39.3751 36.0878L39.3855 36.0774C39.6629 35.8 39.9669 35.4959 40.2335 35.146C40.7721 34.6254 41.4375 34.5978 41.8414 35.0018L41.8414 35.0019C42.384 35.5444 42.4183 36.2237 42.0084 36.6336L41.9833 36.6588L41.9619 36.6873C41.4889 37.3183 40.8524 37.9569 40.1816 38.6281C38.6795 39.9635 37.1924 41.2851 35.708 42.4398Z" fill="white" stroke="#3E404C"/>
<path d="M35.1668 31.3468C35.1668 32.5435 34.1969 33.5135 33.0002 33.5135C31.8036 33.5135 30.8335 32.5435 30.8335 31.3468C30.8335 30.1503 31.8036 29.1802 33.0002 29.1802C34.1968 29.1802 35.1668 30.1503 35.1668 31.3468Z" fill="#FFF4F4" stroke="#3E404C"/>
</svg>
