<svg width="61" height="59" viewBox="0 0 61 59" fill="none" xmlns="http://www.w3.org/2000/svg">
<rect x="0.904297" width="60" height="59" rx="29.5" fill="#3A3C49"/>
<path d="M23.1339 26.4877L23.1339 26.4877C23.6157 26.0317 24.3251 26.0302 24.8084 26.4831L30.5505 32.2363L30.9362 32.6227L31.2873 32.2046L41.0918 20.5274L41.3948 20.1665L41.0525 19.8427C38.2615 17.2016 34.7599 15.7068 30.9044 15.7068C23.2167 15.7068 16.8809 21.6637 16.8809 29.0038C16.8809 36.3439 23.2167 42.3008 30.9044 42.3008C38.5921 42.3008 44.9279 36.3439 44.9279 29.0038C44.9279 27.8472 44.7552 26.5281 44.4062 25.3629C44.3562 25.1007 44.4122 24.7953 44.5632 24.5381C44.7163 24.2774 44.9427 24.1045 45.197 24.0564C45.7931 23.9435 46.4111 24.2788 46.6663 24.8663C47.1456 26.2335 47.3087 27.6089 47.3087 29.0038C47.3087 37.5 39.9519 44.5 30.9044 44.5C21.8567 44.5 14.5 37.5 14.5 29.0038C14.5 20.5077 21.8567 13.5076 30.9044 13.5076C35.1741 13.5076 39.4456 15.2198 42.3937 18.0096L42.7778 18.3731L43.1192 17.9693L46.5002 13.9702L46.1184 13.6474L46.5002 13.9702C47.0189 13.3567 47.7038 13.4367 47.9722 13.6907L48.0163 13.7324L48.069 13.7623C48.3309 13.911 48.4661 14.1548 48.4945 14.4373C48.5239 14.7294 48.4339 15.0364 48.2662 15.2511L31.7052 34.9202L31.6464 34.9901L31.6161 35.0762C31.5832 35.1696 31.521 35.2373 31.409 35.2903C31.2859 35.3485 31.112 35.3822 30.9044 35.3822C30.6835 35.3822 30.3074 35.2649 30.0704 35.0444L23.1465 28.0132L23.1403 28.0069L23.1339 28.0008C22.6662 27.5582 22.6662 26.9302 23.1339 26.4877Z" fill="white" stroke="#3D3E4B"/>
</svg>
