<svg width="65" height="65" viewBox="0 0 65 65" fill="none" xmlns="http://www.w3.org/2000/svg">
<rect x="0.904297" width="64" height="65" rx="32" fill="#3A3C49"/>
<path d="M47.0065 33.6001C48.9405 33.6001 50.5082 32.1748 50.5082 30.4167C50.5082 28.6586 48.9405 27.2334 47.0065 27.2334C45.0726 27.2334 43.5049 28.6586 43.5049 30.4167C43.5049 32.1748 45.0726 33.6001 47.0065 33.6001Z" stroke="white" stroke-miterlimit="10"/>
<path d="M41.7451 38.3665C41.7692 37.1124 42.3341 35.917 43.3183 35.0379C44.3024 34.1588 45.627 33.6663 47.0068 33.6665C48.3991 33.6709 49.7327 34.1768 50.7155 35.0734C51.6983 35.97 52.2501 37.1841 52.2501 38.4498" stroke="white" stroke-miterlimit="10"/>
<path d="M18.9934 33.6001C20.9273 33.6001 22.495 32.1748 22.495 30.4167C22.495 28.6586 20.9273 27.2334 18.9934 27.2334C17.0594 27.2334 15.4917 28.6586 15.4917 30.4167C15.4917 32.1748 17.0594 33.6001 18.9934 33.6001Z" stroke="white" stroke-miterlimit="10"/>
<path d="M13.75 38.3665C13.774 37.1153 14.3364 35.9224 15.3166 35.0437C16.2968 34.1651 17.6168 33.6707 18.9933 33.6665C19.6843 33.6665 20.3685 33.7902 21.0069 34.0306C21.6453 34.271 22.2253 34.6233 22.7139 35.0675C23.2025 35.5117 23.5901 36.039 23.8545 36.6193C24.1189 37.1997 24.255 37.8217 24.255 38.4498" stroke="white" stroke-miterlimit="10"/>
<path d="M29.4982 16.1001L24.2549 20.8668H45.2466" stroke="white" stroke-miterlimit="10"/>
<path d="M36.5018 47.9166L41.7451 43.1333H20.7534" stroke="white" stroke-miterlimit="10"/>
</svg>
