<svg width="66" height="65" viewBox="0 0 66 65" fill="none" xmlns="http://www.w3.org/2000/svg">
<rect x="0.904297" width="65" height="65" rx="32.5" fill="#3A3C49"/>
<path d="M20.1871 43.4381L20.187 43.4381L20.1828 43.4491C20.0099 43.904 19.9082 44.3521 19.9333 44.8004C19.9581 45.2443 20.1053 45.656 20.3766 46.0483C20.7905 46.8746 21.7468 47.46 22.7085 47.46H31.7335C32.192 47.46 32.6585 47.8421 32.6585 48.6267C32.6585 49.0205 32.5353 49.3067 32.3606 49.4906C32.1881 49.6722 31.9286 49.7933 31.5752 49.7933H22.5502C20.8511 49.7933 19.4125 48.9076 18.378 47.3545C17.5204 45.9968 17.371 44.1668 17.9497 42.6408C19.4848 38.7652 22.5536 35.7023 26.0656 34.2557L26.8445 33.9348L26.1898 33.4048C24.257 31.8397 23.0502 29.3201 23.0502 26.46C23.0502 21.545 26.9668 17.46 31.5752 17.46C36.3587 17.46 40.2585 21.3957 40.2585 26.2933C40.2585 31.2083 36.3419 35.2933 31.7335 35.2933C26.5987 35.2933 22.1546 38.6055 20.1871 43.4381ZM31.5752 19.7933C28.1085 19.7933 25.2168 22.875 25.2168 26.46C25.2168 30.045 28.1085 33.1267 31.5752 33.1267C35.0419 33.1267 37.9335 30.045 37.9335 26.46C37.9335 22.875 35.0419 19.7933 31.5752 19.7933Z" fill="#FEFEFE" stroke="#3D3F4C"/>
<path d="M46.404 35.7305L46.4113 35.7192L46.418 35.7076C46.5879 35.4094 46.8266 35.2518 47.0762 35.1992C47.3243 35.147 47.6191 35.1918 47.9099 35.3682C48.2838 35.6818 48.4663 36.3793 48.0773 37.2198L40.3631 49.483C40.0819 49.7673 39.7474 49.96 39.4919 49.96C39.1427 49.96 38.8507 49.8465 38.6477 49.5259L38.6397 49.5134L38.6311 49.5014L34.6741 44.0032C34.6739 44.0029 34.6737 44.0026 34.6735 44.0023C34.528 43.7974 34.4583 43.4764 34.5051 43.1314C34.5521 42.7852 34.7044 42.5016 34.8934 42.3524C35.0788 42.206 35.3663 42.1369 35.6769 42.1836C35.9871 42.2302 36.2495 42.382 36.393 42.5834L36.393 42.5834L36.3952 42.5865L38.9285 46.0865L39.3578 46.6795L39.754 46.0639L46.404 35.7305Z" fill="#FEFEFE" stroke="#3D3F4C"/>
</svg>
